<?xml version="1.0" encoding="UTF-8" standalone="no"?>
<svg
   xmlns:dc="http://purl.org/dc/elements/1.1/"
   xmlns:cc="http://creativecommons.org/ns#"
   xmlns:rdf="http://www.w3.org/1999/02/22-rdf-syntax-ns#"
   xmlns:svg="http://www.w3.org/2000/svg"
   xmlns="http://www.w3.org/2000/svg"
   viewBox="0 0 1294.7067 302.38666"
   height="302.38666"
   width="1294.7067"
   xml:space="preserve"
   id="svg2"
   version="1.1"><metadata
     id="metadata8"><rdf:RDF><cc:Work
         rdf:about=""><dc:format>image/svg+xml</dc:format><dc:type
           rdf:resource="http://purl.org/dc/dcmitype/StillImage" /></cc:Work></rdf:RDF></metadata><defs
     id="defs6" /><g
     transform="matrix(1.3333333,0,0,-1.3333333,0,302.38667)"
     id="g10"><g
       transform="scale(0.1)"
       id="g12"><path
         id="path14"
         style="fill:#100f0d;fill-opacity:1;fill-rule:nonzero;stroke:none"
         d="m 2549.75,874.871 c -7.4,8.231 -16.17,14.82 -26.31,19.75 -10.15,4.938 -20.98,7.399 -32.5,7.399 -7.68,0 -14.12,-0.891 -19.33,-2.668 -5.21,-1.782 -9.46,-4.18 -12.75,-7.192 -3.29,-3.031 -5.62,-6.379 -6.99,-10.082 -1.37,-3.699 -2.06,-7.469 -2.06,-11.308 0,-7.68 2.68,-14.27 8.03,-19.75 5.34,-5.481 13.91,-9.731 25.7,-12.739 L 2519.32,828 c 27.42,-7.961 48.46,-19.75 63.13,-35.371 14.66,-15.629 22,-34.688 22,-57.168 0,-11.789 -2.46,-23.231 -7.4,-34.34 -4.94,-11.101 -12.13,-20.91 -21.59,-29.402 -9.47,-8.508 -21.25,-15.289 -35.37,-20.36 -14.12,-5.07 -30.37,-7.609 -48.73,-7.609 -9.88,0 -19.96,1.02 -30.23,3.09 -10.28,2.051 -20.22,5.199 -29.82,9.449 -9.6,4.25 -18.71,9.52 -27.35,15.832 -8.64,6.32 -16.39,13.578 -23.23,21.809 l 39.89,39.058 c 10.41,-11.789 21.79,-20.418 34.13,-25.91 12.34,-5.476 24.27,-8.219 35.78,-8.219 8.5,0 15.9,1.02 22.21,3.082 6.31,2.047 11.44,4.797 15.42,8.231 3.97,3.418 6.92,7.258 8.85,11.519 1.91,4.239 2.88,8.7 2.88,13.36 0,9.871 -3.29,17.75 -9.88,23.648 -6.57,5.891 -17.55,11.16 -32.9,15.832 l -32.08,9.867 c -25.77,7.954 -45.3,18.852 -58.6,32.704 -13.31,13.839 -19.95,31.726 -19.95,53.668 0,10.96 2.33,21.511 7,31.66 4.65,10.148 11.37,19.191 20.14,27.148 8.78,7.953 19.54,14.332 32.29,19.121 12.75,4.801 27.35,7.199 43.8,7.199 18.36,0 35.91,-3.5 52.64,-10.488 16.73,-6.988 32.08,-18.031 46.07,-33.109 l -38.67,-37.43" /><path
         id="path16"
         style="fill:#100f0d;fill-opacity:1;fill-rule:nonzero;stroke:none"
         d="m 2613.58,851.43 h 58.81 l 42.77,-118.84 42.36,113.09 h 40.31 l 41.95,-113.09 43.18,118.84 h 57.99 l -78.96,-202.75 h -40.31 l -44.83,111.461 -44.41,-111.461 h -39.9 l -78.96,202.75" /><path
         id="path18"
         style="fill:#100f0d;fill-opacity:1;fill-rule:nonzero;stroke:none"
         d="m 3052.52,811.129 c -12.9,0 -23.18,-4.039 -30.85,-12.129 -7.68,-8.09 -12.2,-18.031 -13.57,-29.82 h 87.6 c -0.28,5.761 -1.51,11.172 -3.7,16.25 -2.2,5.07 -5.15,9.519 -8.84,13.371 -3.71,3.828 -8.17,6.84 -13.37,9.039 -5.22,2.199 -10.97,3.289 -17.27,3.289 z m 7.4,-120.5 c 9.32,0 18.16,1.781 26.53,5.359 8.35,3.551 15.69,9.043 22,16.442 l 39.48,-28.789 c -11.25,-13.153 -24.41,-22.969 -39.48,-29.403 -15.09,-6.449 -31.67,-9.668 -49.76,-9.668 -16.73,0 -31.81,2.68 -45.24,8.02 -13.44,5.351 -24.89,12.75 -34.34,22.211 -9.46,9.461 -16.73,20.629 -21.8,33.519 -5.08,12.879 -7.61,26.731 -7.61,41.532 0,14.527 2.4,28.25 7.2,41.136 4.79,12.883 11.58,24.051 20.35,33.512 8.77,9.449 19.54,16.93 32.28,22.41 12.76,5.488 26.95,8.231 42.57,8.231 15.08,0 28.86,-2.743 41.34,-8.231 12.47,-5.48 23.17,-12.89 32.08,-22.199 8.9,-9.332 15.83,-20.16 20.76,-32.492 4.94,-12.348 7.41,-25.5 7.41,-39.489 0,-4.39 -0.07,-8.082 -0.21,-11.101 -0.14,-3.02 -0.35,-5.488 -0.62,-7.399 h -145.17 c 1.09,-13.171 6.51,-23.718 16.24,-31.671 9.73,-7.957 21.73,-11.93 35.99,-11.93" /><path
         id="path20"
         style="fill:#100f0d;fill-opacity:1;fill-rule:nonzero;stroke:none"
         d="m 3241.2,749.852 c 0,-7.403 1.17,-14.321 3.5,-20.762 2.33,-6.449 5.62,-12.07 9.87,-16.86 4.25,-4.808 9.32,-8.511 15.22,-11.109 5.89,-2.609 12.27,-3.902 19.12,-3.902 14.25,0 25.91,4.781 34.96,14.383 9.05,9.597 13.57,22.347 13.57,38.25 0,15.636 -4.46,28.378 -13.36,38.25 -8.92,9.867 -20.63,14.808 -35.17,14.808 -6.85,0 -13.23,-1.379 -19.12,-4.109 -5.9,-2.75 -10.97,-6.449 -15.22,-11.11 -4.25,-4.66 -7.54,-10.281 -9.87,-16.863 -2.33,-6.578 -3.5,-13.566 -3.5,-20.976 z m -56.75,-0.411 c 0,14.809 2.53,28.661 7.61,41.547 5.07,12.883 11.99,24.051 20.77,33.512 8.77,9.449 19.26,16.93 31.46,22.41 12.2,5.488 25.43,8.231 39.69,8.231 10.13,0 19.74,-1.59 28.79,-4.731 9.04,-3.148 16.99,-7.879 23.84,-14.191 v 122.972 h 57.18 V 648.68 h -37.43 l -9.46,25.91 c -7.13,-8.781 -16.25,-15.969 -27.35,-21.59 -11.1,-5.621 -23.79,-8.43 -38.04,-8.43 -13.98,0 -26.87,2.68 -38.66,8.02 -11.79,5.351 -22,12.75 -30.64,22.211 -8.64,9.461 -15.42,20.558 -20.36,33.308 -4.93,12.75 -7.4,26.532 -7.4,41.332" /><path
         id="path22"
         style="fill:#100f0d;fill-opacity:1;fill-rule:nonzero;stroke:none"
         d="m 3501.78,648.68 h -57.58 v 202.75 h 57.58 z m -62.1,271.851 c 0,9.321 3.29,17.199 9.87,23.649 6.58,6.429 14.39,9.66 23.44,9.66 9.32,0 17.28,-3.231 23.85,-9.66 6.59,-6.45 9.88,-14.328 9.88,-23.649 0,-9.32 -3.29,-17.269 -9.88,-23.851 -6.57,-6.578 -14.53,-9.871 -23.85,-9.871 -9.05,0 -16.86,3.293 -23.44,9.871 -6.58,6.582 -9.87,14.531 -9.87,23.851" /><path
         id="path24"
         style="fill:#100f0d;fill-opacity:1;fill-rule:nonzero;stroke:none"
         d="m 3665.54,797.148 c -5.75,4.383 -12.13,7.821 -19.12,10.282 -6.99,2.468 -14.19,3.699 -21.59,3.699 -7.4,0 -13.02,-1.641 -16.86,-4.93 -3.85,-3.289 -5.76,-7.398 -5.76,-12.34 0,-3.57 1.3,-6.789 3.9,-9.668 2.61,-2.871 6.93,-5 12.96,-6.371 l 18.1,-4.519 c 22.75,-6.321 38.93,-14.813 48.53,-25.512 9.59,-10.68 14.39,-23.57 14.39,-38.648 0,-8.512 -1.79,-16.661 -5.35,-24.469 -3.56,-7.82 -8.77,-14.672 -15.63,-20.563 -6.85,-5.91 -15.35,-10.629 -25.49,-14.199 -10.15,-3.551 -21.66,-5.34 -34.55,-5.34 -15.63,0 -30.37,2.41 -44.21,7.2 -13.85,4.789 -25.98,11.992 -36.4,21.589 l 27.97,37.012 c 6.58,-6.57 14.32,-11.66 23.23,-15.211 8.91,-3.57 17.34,-5.351 25.3,-5.351 9.32,0 15.97,2.05 19.94,6.179 3.98,4.102 5.96,8.762 5.96,13.973 0,4.109 -1.57,7.879 -4.72,11.309 -3.16,3.429 -8.17,5.968 -15.02,7.609 l -23.85,7.402 c -6.31,1.649 -12.61,3.899 -18.91,6.801 -6.32,2.867 -12.07,6.566 -17.28,11.09 -5.21,4.527 -9.39,10.008 -12.55,16.449 -3.15,6.438 -4.72,14.059 -4.72,22.828 0,8.492 1.71,16.449 5.14,23.852 3.42,7.41 8.36,13.918 14.8,19.539 6.44,5.609 14.46,10.07 24.06,13.359 9.6,3.301 20.57,4.942 32.91,4.942 13.16,0 25.63,-1.789 37.42,-5.352 11.79,-3.559 22.89,-9.051 33.31,-16.449 l -25.91,-36.192" /><path
         id="path26"
         style="fill:#100f0d;fill-opacity:1;fill-rule:nonzero;stroke:none"
         d="m 3795.99,648.68 h -57.57 v 310.511 h 57.57 V 836.219 c 6.59,6.312 14.4,11.043 23.45,14.191 9.05,3.141 18.36,4.731 27.96,4.731 12.34,0 23.72,-2.129 34.14,-6.371 10.41,-4.258 19.39,-10.348 26.94,-18.301 7.53,-7.957 13.42,-17.629 17.68,-29.008 4.25,-11.371 6.37,-24.051 6.37,-38.031 V 648.68 h -56.34 v 111.461 c 0,12.328 -3.09,22.339 -9.25,30.019 -6.17,7.668 -15.57,11.52 -28.17,11.52 -9.33,0 -17.89,-2.539 -25.7,-7.61 -7.82,-5.082 -13.52,-11.59 -17.08,-19.539 V 648.68" /><path
         id="path28"
         style="fill:#100f0d;fill-opacity:1;fill-rule:nonzero;stroke:none"
         d="m 4357.37,648.68 h -55.12 L 4160.78,839.922 V 648.68 h -63.75 v 302.289 h 54.7 L 4293.21,759.32 v 191.649 h 64.16 V 648.68" /><path
         id="path30"
         style="fill:#100f0d;fill-opacity:1;fill-rule:nonzero;stroke:none"
         d="m 4460.87,749.852 c 0,-7.403 1.17,-14.321 3.5,-20.762 2.33,-6.449 5.69,-12 10.08,-16.66 4.38,-4.668 9.59,-8.371 15.63,-11.102 6.03,-2.75 12.6,-4.109 19.74,-4.109 14.53,0 26.38,5.062 35.57,15.211 9.19,10.14 13.78,23.172 13.78,39.07 0,7.129 -1.24,13.781 -3.7,19.941 -2.47,6.18 -5.9,11.59 -10.28,16.25 -4.39,4.661 -9.6,8.36 -15.63,11.11 -6.04,2.73 -12.61,4.109 -19.74,4.109 -7.14,0 -13.71,-1.379 -19.74,-4.109 -6.04,-2.75 -11.17,-6.449 -15.43,-11.11 -4.25,-4.66 -7.61,-10.281 -10.07,-16.863 -2.47,-6.578 -3.71,-13.566 -3.71,-20.976 z m -56.75,0 c 0,14.808 2.53,28.589 7.61,41.339 5.07,12.739 12.14,23.848 21.18,33.309 9.05,9.449 19.67,16.93 31.87,22.41 12.2,5.488 25.43,8.231 39.7,8.231 11.77,0 23.57,-2.411 35.36,-7.2 11.78,-4.8 22.07,-11.722 30.85,-20.761 l 13.98,25.082 h 30.84 V 648.68 h -48.11 l -2.88,25.91 c -7.69,-9.602 -17.35,-17 -29,-22.211 -11.66,-5.199 -23.65,-7.809 -35.99,-7.809 -12.89,0 -25.15,2.68 -36.8,8.02 -11.66,5.351 -21.8,12.672 -30.44,22 -8.63,9.32 -15.49,20.43 -20.56,33.32 -5.08,12.879 -7.61,26.86 -7.61,41.942" /><path
         id="path32"
         style="fill:#100f0d;fill-opacity:1;fill-rule:nonzero;stroke:none"
         d="m 4645.25,851.43 h 35.36 l 7.82,59.23 46.89,-1.238 V 851.43 h 51 v -47.7 h -51 v -79.378 c 0,-8.77 2.05,-15.352 6.16,-19.731 4.11,-4.402 9.47,-6.582 16.05,-6.582 h 28.37 l 2.05,-48.129 c -7.67,-1.359 -14.94,-2.32 -21.79,-2.871 -6.85,-0.551 -13.44,-0.82 -19.74,-0.82 -11.51,0 -21.52,1.851 -30.02,5.551 -8.5,3.699 -15.57,8.699 -21.18,15.011 -5.62,6.309 -9.87,13.828 -12.76,22.61 -2.87,8.781 -4.31,18.097 -4.31,27.968 v 86.371 h -32.9 v 47.7" /><path
         id="path34"
         style="fill:#100f0d;fill-opacity:1;fill-rule:nonzero;stroke:none"
         d="m 4884.6,648.68 h -57.58 v 202.75 h 57.58 z m -62.11,271.851 c 0,9.321 3.29,17.199 9.88,23.649 6.57,6.429 14.39,9.66 23.44,9.66 9.32,0 17.27,-3.231 23.85,-9.66 6.58,-6.45 9.87,-14.328 9.87,-23.649 0,-9.32 -3.29,-17.269 -9.87,-23.851 -6.58,-6.578 -14.53,-9.871 -23.85,-9.871 -9.05,0 -16.87,3.293 -23.44,9.871 -6.59,6.582 -9.88,14.531 -9.88,23.851" /><path
         id="path36"
         style="fill:#100f0d;fill-opacity:1;fill-rule:nonzero;stroke:none"
         d="m 4978.94,749.852 c 0,-7.403 1.18,-14.321 3.5,-20.762 2.32,-6.449 5.68,-12 10.08,-16.66 4.38,-4.668 9.46,-8.371 15.21,-11.102 5.76,-2.75 12.2,-4.109 19.33,-4.109 7.13,0 13.64,1.359 19.53,4.109 5.9,2.731 10.9,6.434 15.02,11.102 4.11,4.66 7.32,10.211 9.66,16.66 2.33,6.441 3.5,13.359 3.5,20.762 0,7.41 -1.17,14.328 -3.5,20.769 -2.34,6.438 -5.55,12.059 -9.66,16.859 -4.12,4.801 -9.12,8.571 -15.02,11.321 -5.89,2.73 -12.4,4.109 -19.53,4.109 -7.13,0 -13.57,-1.379 -19.33,-4.109 -5.75,-2.75 -10.83,-6.52 -15.21,-11.321 -4.4,-4.8 -7.76,-10.421 -10.08,-16.859 -2.32,-6.441 -3.5,-13.359 -3.5,-20.769 z m -55.92,0 c 0,14.527 2.46,28.25 7.39,41.136 4.94,12.883 11.92,24.051 20.98,33.512 9.04,9.449 20.01,16.93 32.91,22.41 12.87,5.488 27.13,8.231 42.76,8.231 15.62,0 29.81,-2.743 42.57,-8.231 12.75,-5.48 23.64,-12.961 32.68,-22.41 9.07,-9.461 16.12,-20.629 21.18,-33.512 5.09,-12.886 7.61,-26.609 7.61,-41.136 0,-14.532 -2.52,-28.243 -7.61,-41.122 -5.06,-12.89 -12.11,-24.058 -21.18,-33.531 -9.04,-9.449 -19.93,-16.918 -32.68,-22.41 -12.76,-5.48 -26.95,-8.219 -42.57,-8.219 -15.63,0 -29.82,2.739 -42.57,8.219 -12.74,5.492 -23.64,12.961 -32.69,22.41 -9.05,9.473 -16.12,20.641 -21.18,33.531 -5.07,12.879 -7.6,26.59 -7.6,41.122" /><path
         id="path38"
         style="fill:#100f0d;fill-opacity:1;fill-rule:nonzero;stroke:none"
         d="m 5228.25,648.68 h -57.58 v 203.582 h 30.84 l 16.46,-26.321 c 6.58,8.489 15.28,15.489 26.11,20.969 10.82,5.488 22.68,8.231 35.58,8.231 12.32,0 23.64,-2.051 33.92,-6.172 10.28,-4.117 19.26,-10.071 26.94,-17.899 7.67,-7.8 13.64,-17.41 17.89,-28.789 4.25,-11.371 6.37,-24.32 6.37,-38.851 V 648.68 h -56.33 v 111.05 c 0,12.329 -3.17,22.411 -9.47,30.231 -6.31,7.801 -15.9,11.719 -28.79,11.719 -9.32,0 -17.75,-2.621 -25.29,-7.821 -7.55,-5.211 -13.09,-11.789 -16.65,-19.738 V 648.68" /><path
         id="path40"
         style="fill:#100f0d;fill-opacity:1;fill-rule:nonzero;stroke:none"
         d="m 5457.67,749.852 c 0,-7.403 1.18,-14.321 3.51,-20.762 2.32,-6.449 5.68,-12 10.08,-16.66 4.38,-4.668 9.59,-8.371 15.62,-11.102 6.03,-2.75 12.61,-4.109 19.74,-4.109 14.52,0 26.39,5.062 35.58,15.211 9.18,10.14 13.78,23.172 13.78,39.07 0,7.129 -1.24,13.781 -3.71,19.941 -2.47,6.18 -5.89,11.59 -10.29,16.25 -4.37,4.661 -9.59,8.36 -15.61,11.11 -6.04,2.73 -12.62,4.109 -19.75,4.109 -7.13,0 -13.71,-1.379 -19.74,-4.109 -6.03,-2.75 -11.17,-6.449 -15.43,-11.11 -4.24,-4.66 -7.6,-10.281 -10.06,-16.863 -2.48,-6.578 -3.72,-13.566 -3.72,-20.976 z m -56.74,0 c 0,14.808 2.53,28.589 7.6,41.339 5.07,12.739 12.13,23.848 21.18,33.309 9.06,9.449 19.68,16.93 31.87,22.41 12.21,5.488 25.44,8.231 39.7,8.231 11.78,0 23.57,-2.411 35.36,-7.2 11.8,-4.8 22.07,-11.722 30.85,-20.761 l 13.97,25.082 h 30.85 V 648.68 h -48.11 l -2.88,25.91 c -7.68,-9.602 -17.35,-17 -29,-22.211 -11.66,-5.199 -23.65,-7.809 -35.98,-7.809 -12.89,0 -25.16,2.68 -36.81,8.02 -11.66,5.351 -21.8,12.672 -30.43,22 -8.64,9.32 -15.5,20.43 -20.57,33.32 -5.07,12.879 -7.6,26.86 -7.6,41.942" /><path
         id="path42"
         style="fill:#100f0d;fill-opacity:1;fill-rule:nonzero;stroke:none"
         d="m 5719.75,648.68 h -57.57 v 310.511 h 57.57 V 648.68" /><path
         id="path44"
         style="fill:#100f0d;fill-opacity:1;fill-rule:nonzero;stroke:none"
         d="m 6040.94,874.871 c -7.4,8.231 -16.18,14.82 -26.31,19.75 -10.16,4.938 -20.98,7.399 -32.49,7.399 -7.69,0 -14.12,-0.891 -19.34,-2.668 -5.2,-1.782 -9.46,-4.18 -12.75,-7.192 -3.29,-3.031 -5.63,-6.379 -6.99,-10.082 -1.38,-3.699 -2.06,-7.469 -2.06,-11.308 0,-7.68 2.68,-14.27 8.02,-19.75 5.34,-5.481 13.92,-9.731 25.71,-12.739 L 6010.51,828 c 27.41,-7.961 48.46,-19.75 63.13,-35.371 14.66,-15.629 22,-34.688 22,-57.168 0,-11.789 -2.47,-23.231 -7.41,-34.34 -4.93,-11.101 -12.13,-20.91 -21.59,-29.402 -9.45,-8.508 -21.25,-15.289 -35.36,-20.36 -14.12,-5.07 -30.37,-7.609 -48.74,-7.609 -9.87,0 -19.94,1.02 -30.23,3.09 -10.28,2.051 -20.22,5.199 -29.81,9.449 -9.6,4.25 -18.71,9.52 -27.35,15.832 -8.64,6.32 -16.39,13.578 -23.24,21.809 l 39.9,39.058 c 10.42,-11.789 21.79,-20.418 34.14,-25.91 12.32,-5.476 24.26,-8.219 35.78,-8.219 8.48,0 15.89,1.02 22.19,3.082 6.3,2.047 11.45,4.797 15.43,8.231 3.98,3.418 6.92,7.258 8.84,11.519 1.92,4.239 2.87,8.7 2.87,13.36 0,9.871 -3.29,17.75 -9.85,23.648 -6.58,5.891 -17.56,11.16 -32.9,15.832 l -32.09,9.867 c -25.77,7.954 -45.3,18.852 -58.6,32.704 -13.3,13.839 -19.96,31.726 -19.96,53.668 0,10.96 2.34,21.511 7.01,31.66 4.65,10.148 11.36,19.191 20.14,27.148 8.77,7.953 19.53,14.332 32.29,19.121 12.75,4.801 27.34,7.199 43.8,7.199 18.36,0 35.91,-3.5 52.64,-10.488 16.71,-6.988 32.07,-18.031 46.06,-33.109 l -38.66,-37.43" /><path
         id="path46"
         style="fill:#100f0d;fill-opacity:1;fill-rule:nonzero;stroke:none"
         d="m 6288.1,750.68 c 0,7.41 -1.1,14.25 -3.29,20.558 -2.19,6.313 -5.28,11.793 -9.25,16.453 -3.98,4.661 -8.77,8.36 -14.4,11.11 -5.61,2.73 -11.99,4.109 -19.12,4.109 -14.53,0 -26.26,-4.941 -35.16,-14.808 -8.91,-9.872 -13.37,-22.614 -13.37,-38.25 0,-7.954 1.29,-15.141 3.91,-21.59 2.6,-6.442 6.03,-11.992 10.28,-16.66 4.25,-4.661 9.32,-8.223 15.22,-10.692 5.89,-2.461 12.13,-3.691 18.71,-3.691 6.86,0 13.16,1.359 18.93,4.109 5.75,2.731 10.68,6.582 14.8,11.512 4.11,4.93 7.26,10.629 9.45,17.07 2.19,6.442 3.29,13.36 3.29,20.77 z m 57.58,-0.418 c 0,-14.532 -2.32,-28.172 -6.99,-40.91 -4.67,-12.762 -11.25,-23.93 -19.74,-33.524 -8.51,-9.598 -18.79,-17.207 -30.85,-22.828 -12.07,-5.621 -25.64,-8.43 -40.71,-8.43 -10.15,0 -19.88,1.918 -29.2,5.758 -9.32,3.844 -17.14,8.91 -23.44,15.223 V 548.328 h -57.57 v 303.934 h 30.83 l 16.45,-28.793 c 7.68,10.14 16.99,17.961 27.97,23.441 10.96,5.488 23.45,8.231 37.42,8.231 14,0 26.8,-2.68 38.46,-8.02 11.65,-5.351 21.73,-12.762 30.23,-22.211 8.49,-9.461 15.14,-20.558 19.95,-33.308 4.79,-12.75 7.19,-26.532 7.19,-41.34" /><path
         id="path48"
         style="fill:#100f0d;fill-opacity:1;fill-rule:nonzero;stroke:none"
         d="m 6431.42,749.852 c 0,-7.403 1.18,-14.321 3.5,-20.762 2.32,-6.449 5.68,-12 10.08,-16.66 4.38,-4.668 9.59,-8.371 15.63,-11.102 6.02,-2.75 12.6,-4.109 19.73,-4.109 14.53,0 26.39,5.062 35.59,15.211 9.18,10.14 13.77,23.172 13.77,39.07 0,7.129 -1.23,13.781 -3.71,19.941 -2.46,6.18 -5.89,11.59 -10.28,16.25 -4.38,4.661 -9.6,8.36 -15.61,11.11 -6.05,2.73 -12.63,4.109 -19.76,4.109 -7.13,0 -13.71,-1.379 -19.73,-4.109 -6.04,-2.75 -11.18,-6.449 -15.43,-11.11 -4.25,-4.66 -7.61,-10.281 -10.07,-16.863 -2.47,-6.578 -3.71,-13.566 -3.71,-20.976 z m -56.75,0 c 0,14.808 2.54,28.589 7.6,41.339 5.07,12.739 12.13,23.848 21.19,33.309 9.05,9.449 19.67,16.93 31.87,22.41 12.2,5.488 25.43,8.231 39.69,8.231 11.79,0 23.57,-2.411 35.37,-7.2 11.79,-4.8 22.06,-11.722 30.84,-20.761 l 13.98,25.082 h 30.85 V 648.68 h -48.12 l -2.87,25.91 c -7.68,-9.602 -17.36,-17 -29.01,-22.211 -11.65,-5.199 -23.64,-7.809 -35.98,-7.809 -12.88,0 -25.16,2.68 -36.81,8.02 -11.66,5.351 -21.8,12.672 -30.43,22 -8.63,9.32 -15.5,20.43 -20.57,33.32 -5.06,12.879 -7.6,26.86 -7.6,41.942" /><path
         id="path50"
         style="fill:#100f0d;fill-opacity:1;fill-rule:nonzero;stroke:none"
         d="m 6682.38,749.852 c 0,-7.403 1.24,-14.321 3.7,-20.762 2.47,-6.449 5.98,-12.07 10.49,-16.86 4.53,-4.808 9.87,-8.511 16.05,-11.109 6.17,-2.609 12.95,-3.902 20.36,-3.902 8.77,0 16.57,1.492 23.43,4.519 6.85,3.012 13.31,7.403 19.33,13.153 l 39.06,-37.422 c -10.96,-10.418 -23.3,-18.508 -37,-24.27 -13.71,-5.75 -28.92,-8.629 -45.65,-8.629 -15.91,0 -30.36,2.739 -43.38,8.219 -13.04,5.492 -24.22,13.02 -33.53,22.621 -9.32,9.602 -16.59,20.781 -21.8,33.52 -5.21,12.761 -7.81,26.39 -7.81,40.922 0,14.527 2.46,28.179 7.41,40.929 4.93,12.739 11.98,23.918 21.18,33.52 9.18,9.59 20.21,17.129 33.1,22.609 12.87,5.488 27.28,8.231 43.18,8.231 17.83,0 34.07,-3.571 48.74,-10.692 14.66,-7.14 27.21,-17.269 37.63,-30.437 l -41.95,-34.543 c -5.49,7.121 -11.86,12.75 -19.13,16.859 -7.27,4.113 -15.42,6.172 -24.46,6.172 -7.13,0 -13.71,-1.309 -19.74,-3.91 -6.03,-2.61 -11.18,-6.309 -15.43,-11.11 -4.25,-4.8 -7.61,-10.421 -10.08,-16.859 -2.46,-6.441 -3.7,-13.359 -3.7,-20.769" /><path
         id="path52"
         style="fill:#100f0d;fill-opacity:1;fill-rule:nonzero;stroke:none"
         d="m 6938.64,811.129 c -12.88,0 -23.17,-4.039 -30.85,-12.129 -7.67,-8.09 -12.2,-18.031 -13.56,-29.82 h 87.59 c -0.27,5.761 -1.51,11.172 -3.7,16.25 -2.19,5.07 -5.14,9.519 -8.84,13.371 -3.7,3.828 -8.16,6.84 -13.36,9.039 -5.22,2.199 -10.98,3.289 -17.28,3.289 z m 7.41,-120.5 c 9.31,0 18.15,1.781 26.52,5.359 8.37,3.551 15.69,9.043 22.01,16.442 l 39.47,-28.789 c -11.25,-13.153 -24.4,-22.969 -39.47,-29.403 -15.08,-6.449 -31.67,-9.668 -49.77,-9.668 -16.73,0 -31.8,2.68 -45.24,8.02 -13.43,5.351 -24.87,12.75 -34.34,22.211 -9.46,9.461 -16.74,20.629 -21.79,33.519 -5.08,12.879 -7.61,26.731 -7.61,41.532 0,14.527 2.39,28.25 7.2,41.136 4.79,12.883 11.57,24.051 20.35,33.512 8.77,9.449 19.54,16.93 32.29,22.41 12.75,5.488 26.93,8.231 42.56,8.231 15.07,0 28.85,-2.743 41.33,-8.231 12.48,-5.48 23.16,-12.89 32.08,-22.199 8.92,-9.332 15.84,-20.16 20.77,-32.492 4.93,-12.348 7.41,-25.5 7.41,-39.489 0,-4.39 -0.08,-8.082 -0.21,-11.101 -0.15,-3.02 -0.35,-5.488 -0.62,-7.399 h -145.17 c 1.09,-13.171 6.5,-23.718 16.24,-31.671 9.72,-7.957 21.73,-11.93 35.99,-11.93" /><path
         id="path54"
         style="fill:#100f0d;fill-opacity:1;fill-rule:nonzero;stroke:none"
         d="m 7294.37,764.25 h 76.09 l -37.84,104.461 z m 92.13,-48.121 h -108.98 l -26.74,-67.449 h -69.1 l 121.33,302.289 h 57.98 L 7482.32,648.68 h -69.92 l -25.9,67.449" /><path
         id="path56"
         style="fill:#100f0d;fill-opacity:1;fill-rule:nonzero;stroke:none"
         d="m 7555.44,750.68 c 0,-7.41 1.09,-14.258 3.29,-20.559 2.2,-6.312 5.41,-11.871 9.66,-16.66 4.26,-4.801 9.39,-8.582 15.44,-11.313 6.01,-2.75 12.74,-4.109 20.14,-4.109 6.85,0 13.24,1.359 19.12,4.109 5.9,2.731 10.97,6.512 15.22,11.313 4.25,4.789 7.54,10.418 9.87,16.859 2.34,6.442 3.5,13.5 3.5,21.18 0,7.129 -1.16,13.84 -3.5,20.148 -2.33,6.313 -5.62,11.864 -9.87,16.661 -4.25,4.793 -9.32,8.562 -15.22,11.312 -5.88,2.731 -12.41,4.109 -19.54,4.109 -7.39,0 -14.04,-1.378 -19.94,-4.109 -5.89,-2.75 -10.96,-6.519 -15.22,-11.312 -4.25,-4.797 -7.46,-10.43 -9.66,-16.868 -2.2,-6.441 -3.29,-13.351 -3.29,-20.761 z m 44.42,-205.629 c -19.74,0 -37.57,4.109 -53.46,12.328 -15.9,8.223 -28.66,19.191 -38.25,32.902 l 41.12,30.43 c 5.48,-7.949 12.55,-14.18 21.19,-18.711 8.63,-4.52 18.16,-6.789 28.58,-6.789 15.07,0 27.47,4.328 37.22,12.961 9.73,8.637 14.6,21.18 14.6,37.637 v 25.492 c -7.14,-7.949 -15.63,-14.121 -25.5,-18.512 -9.87,-4.367 -20.43,-6.57 -31.66,-6.57 -13.17,0 -25.58,2.601 -37.24,7.801 -11.64,5.218 -21.72,12.41 -30.21,21.601 -8.51,9.18 -15.23,20.078 -20.16,32.699 -4.94,12.61 -7.4,26.45 -7.4,41.532 0,14.527 2.39,28.25 7.2,41.136 4.79,12.883 11.57,24.051 20.36,33.512 8.76,9.449 19.25,16.93 31.45,22.41 12.2,5.488 25.84,8.231 40.92,8.231 13.17,0 25.36,-2.68 36.61,-8.02 11.23,-5.351 20.56,-11.992 27.97,-19.941 l 13.98,25.082 h 30.85 V 647.449 c 0,-15.617 -2.55,-29.75 -7.61,-42.359 -5.08,-12.61 -12.28,-23.371 -21.6,-32.289 -9.32,-8.891 -20.7,-15.762 -34.13,-20.551 -13.44,-4.801 -28.38,-7.199 -44.83,-7.199" /><path
         id="path58"
         style="fill:#100f0d;fill-opacity:1;fill-rule:nonzero;stroke:none"
         d="m 7850.61,811.129 c -12.89,0 -23.17,-4.039 -30.85,-12.129 -7.67,-8.09 -12.2,-18.031 -13.56,-29.82 h 87.6 c -0.28,5.761 -1.52,11.172 -3.7,16.25 -2.2,5.07 -5.15,9.519 -8.85,13.371 -3.69,3.828 -8.16,6.84 -13.37,9.039 -5.21,2.199 -10.97,3.289 -17.27,3.289 z m 7.41,-120.5 c 9.31,0 18.15,1.781 26.52,5.359 8.37,3.551 15.69,9.043 22.01,16.442 l 39.47,-28.789 c -11.25,-13.153 -24.4,-22.969 -39.47,-29.403 -15.09,-6.449 -31.67,-9.668 -49.76,-9.668 -16.73,0 -31.81,2.68 -45.25,8.02 -13.43,5.351 -24.87,12.75 -34.33,22.211 -9.47,9.461 -16.74,20.629 -21.8,33.519 -5.08,12.879 -7.61,26.731 -7.61,41.532 0,14.527 2.39,28.25 7.19,41.136 4.8,12.883 11.58,24.051 20.36,33.512 8.77,9.449 19.54,16.93 32.29,22.41 12.75,5.488 26.93,8.231 42.56,8.231 15.07,0 28.85,-2.743 41.33,-8.231 12.47,-5.48 23.17,-12.89 32.08,-22.199 8.91,-9.332 15.84,-20.16 20.77,-32.492 4.94,-12.348 7.41,-25.5 7.41,-39.489 0,-4.39 -0.08,-8.082 -0.21,-11.101 -0.15,-3.02 -0.35,-5.488 -0.61,-7.399 h -145.18 c 1.09,-13.171 6.5,-23.718 16.24,-31.671 9.73,-7.957 21.72,-11.93 35.99,-11.93" /><path
         id="path60"
         style="fill:#100f0d;fill-opacity:1;fill-rule:nonzero;stroke:none"
         d="m 8050.91,648.68 h -57.58 v 203.582 h 30.83 l 16.45,-26.321 c 6.59,8.489 15.29,15.489 26.13,20.969 10.82,5.488 22.67,8.231 35.57,8.231 12.33,0 23.64,-2.051 33.93,-6.172 10.27,-4.117 19.26,-10.071 26.93,-17.899 7.67,-7.8 13.65,-17.41 17.89,-28.789 4.25,-11.371 6.37,-24.32 6.37,-38.851 V 648.68 h -56.34 v 111.05 c 0,12.329 -3.15,22.411 -9.46,30.231 -6.3,7.801 -15.9,11.719 -28.78,11.719 -9.33,0 -17.76,-2.621 -25.29,-7.821 -7.55,-5.211 -13.1,-11.789 -16.65,-19.738 V 648.68" /><path
         id="path62"
         style="fill:#100f0d;fill-opacity:1;fill-rule:nonzero;stroke:none"
         d="m 8280.33,749.852 c 0,-7.403 1.24,-14.321 3.7,-20.762 2.47,-6.449 5.97,-12.07 10.49,-16.86 4.53,-4.808 9.87,-8.511 16.05,-11.109 6.17,-2.609 12.94,-3.902 20.36,-3.902 8.77,0 16.57,1.492 23.43,4.519 6.85,3.012 13.3,7.403 19.33,13.153 l 39.06,-37.422 c -10.96,-10.418 -23.3,-18.508 -37,-24.27 -13.71,-5.75 -28.93,-8.629 -45.65,-8.629 -15.91,0 -30.36,2.739 -43.39,8.219 -13.03,5.492 -24.21,13.02 -33.52,22.621 -9.32,9.602 -16.59,20.781 -21.8,33.52 -5.21,12.761 -7.81,26.39 -7.81,40.922 0,14.527 2.46,28.179 7.41,40.929 4.93,12.739 11.98,23.918 21.17,33.52 9.19,9.59 20.22,17.129 33.11,22.609 12.88,5.488 27.28,8.231 43.18,8.231 17.83,0 34.07,-3.571 48.74,-10.692 14.65,-7.14 27.21,-17.269 37.63,-30.437 l -41.95,-34.543 c -5.49,7.121 -11.87,12.75 -19.13,16.859 -7.27,4.113 -15.42,6.172 -24.46,6.172 -7.13,0 -13.71,-1.309 -19.74,-3.91 -6.04,-2.61 -11.18,-6.309 -15.43,-11.11 -4.25,-4.8 -7.61,-10.421 -10.08,-16.859 -2.46,-6.441 -3.7,-13.359 -3.7,-20.769" /><path
         id="path64"
         style="fill:#100f0d;fill-opacity:1;fill-rule:nonzero;stroke:none"
         d="m 8545.52,598.93 c -6.87,-17.008 -16.46,-30.032 -28.8,-39.078 -12.34,-9.051 -27.97,-13.571 -46.88,-13.571 -5.22,0 -10.28,0.27 -15.21,0.821 -4.94,0.558 -9.61,1.226 -14,2.058 l 4.12,47.289 h 21.8 c 13.99,0 23.58,6.172 28.78,18.512 l 13.58,34.141 -79.79,202.328 h 59.23 l 48.52,-129.141 48.94,129.141 h 59.65 l -99.94,-252.5" /><path
         id="path66"
         style="fill:#100f0d;fill-opacity:1;fill-rule:nonzero;stroke:none"
         d="m 2509.81,1574.72 v -139.83 h 83.63 c 26.5,0.45 46.49,7.08 59.98,19.88 13.47,12.78 20.22,29.47 20.22,50.03 0,22.39 -7.21,39.64 -21.6,51.75 -14.39,12.11 -35.07,18.17 -62.03,18.17 z m 272.81,-67.86 c 0,-35.2 -9.49,-65.46 -28.45,-90.82 -18.96,-25.36 -45.13,-43.3 -78.48,-53.81 l 130.92,-200.83 h -119.95 l -117.21,185.75 h -59.64 V 1161.4 h -106.24 v 503.8 h 193.98 c 28.33,0 53.91,-3.77 76.77,-11.31 22.85,-7.54 42.27,-18.16 58.26,-31.87 15.99,-13.71 28.33,-30.28 37.02,-49.7 8.67,-19.43 13.02,-41.24 13.02,-65.46" /><path
         id="path68"
         style="fill:#100f0d;fill-opacity:1;fill-rule:nonzero;stroke:none"
         d="m 3017.52,1078.47 c -11.42,-28.34 -27.42,-50.05 -47.98,-65.13 -20.57,-15.07 -46.61,-22.621 -78.14,-22.621 -8.69,0 -17.14,0.461 -25.36,1.383 -8.23,0.918 -16.01,2.046 -23.31,3.418 l 6.86,78.83 h 36.32 c 23.31,0 39.3,10.28 47.99,30.84 l 22.62,56.89 -132.98,337.24 h 98.7 l 80.89,-215.22 81.57,215.22 h 99.38 l -166.56,-420.85" /><path
         id="path70"
         style="fill:#100f0d;fill-opacity:1;fill-rule:nonzero;stroke:none"
         d="m 3537.02,1161.4 h -92.54 v 187.12 c 0,20.57 -5.26,37.02 -15.77,49.36 -10.51,12.33 -25.82,18.5 -45.92,18.5 -14.63,0 -27.88,-4.23 -39.76,-12.68 -11.88,-8.46 -20.34,-19.31 -25.36,-32.56 V 1161.4 h -95.96 v 339.29 h 51.41 l 27.42,-43.18 c 9.59,13.25 22.84,24.56 39.75,33.93 16.91,9.36 35.65,14.05 56.21,14.05 22.84,0 43.63,-4.57 62.37,-13.71 18.74,-9.15 34.5,-22.4 47.3,-39.75 13.25,16.9 29.36,30.04 48.32,39.41 18.96,9.36 38.73,14.05 59.29,14.05 20.11,0 38.62,-3.55 55.53,-10.62 16.89,-7.09 31.52,-17.14 43.86,-30.16 12.35,-13.03 21.94,-29.03 28.79,-47.98 6.85,-18.97 10.28,-40.34 10.28,-64.09 V 1161.4 h -92.53 v 187.12 c 0,20.11 -4.69,36.44 -14.05,49.02 -9.37,12.56 -24.33,18.84 -44.9,18.84 -14.63,0 -27.76,-4.23 -39.41,-12.68 -11.65,-8.46 -19.77,-19.31 -24.33,-32.56 V 1161.4" /><path
         id="path72"
         style="fill:#100f0d;fill-opacity:1;fill-rule:nonzero;stroke:none"
         d="m 3899.41,1330.02 c 0,-12.34 1.94,-23.88 5.83,-34.62 3.87,-10.74 9.36,-20.11 16.45,-28.1 7.07,-8 15.53,-14.17 25.35,-18.51 9.83,-4.34 20.45,-6.51 31.88,-6.51 23.75,0 43.18,7.99 58.26,23.99 15.08,15.99 22.62,37.23 22.62,63.75 0,26.04 -7.43,47.29 -22.28,63.75 -14.86,16.44 -34.39,24.67 -58.6,24.67 -11.43,0 -22.05,-2.29 -31.88,-6.85 -9.82,-4.58 -18.28,-10.75 -25.35,-18.52 -7.09,-7.76 -12.58,-17.13 -16.45,-28.09 -3.89,-10.97 -5.83,-22.63 -5.83,-34.96 z m -94.59,-0.68 c 0,24.67 4.22,47.74 12.68,69.22 8.45,21.48 19.98,40.1 34.61,55.86 14.62,15.77 32.1,28.21 52.44,37.36 20.33,9.14 42.38,13.71 66.15,13.71 16.89,0 32.9,-2.63 47.97,-7.88 15.09,-5.26 28.34,-13.14 39.76,-23.65 v 204.95 h 95.28 V 1161.4 h -62.38 l -15.76,43.18 c -11.89,-14.62 -27.08,-26.63 -45.59,-35.99 -18.5,-9.36 -39.64,-14.04 -63.4,-14.04 -23.3,0 -44.79,4.45 -64.43,13.36 -19.66,8.91 -36.67,21.25 -51.07,37.02 -14.39,15.76 -25.7,34.27 -33.92,55.51 -8.23,21.25 -12.34,44.22 -12.34,68.9" /><path
         id="path74"
         style="fill:#100f0d;fill-opacity:1;fill-rule:nonzero;stroke:none"
         d="m 4419.65,1408.85 c -9.59,7.3 -20.22,13.01 -31.87,17.13 -11.65,4.11 -23.65,6.17 -35.98,6.17 -12.34,0 -21.72,-2.75 -28.11,-8.22 -6.4,-5.49 -9.59,-12.34 -9.59,-20.57 0,-5.94 2.15,-11.31 6.51,-16.11 4.34,-4.8 11.53,-8.34 21.59,-10.62 l 30.16,-7.54 c 37.92,-10.52 64.88,-24.68 80.88,-42.5 15.99,-17.82 23.99,-39.3 23.99,-64.43 0,-14.17 -2.98,-27.76 -8.91,-40.78 -5.94,-13.03 -14.63,-24.45 -26.05,-34.28 -11.42,-9.83 -25.6,-17.71 -42.49,-23.64 -16.92,-5.94 -36.11,-8.91 -57.58,-8.91 -26.05,0 -50.61,4 -73.69,11.99 -23.08,7.99 -43.3,19.98 -60.66,35.98 l 46.61,61.69 c 10.97,-10.96 23.87,-19.43 38.73,-25.36 14.85,-5.94 28.89,-8.91 42.16,-8.91 15.52,0 26.61,3.43 33.24,10.28 6.61,6.86 9.93,14.62 9.93,23.31 0,6.86 -2.63,13.13 -7.88,18.85 -5.26,5.71 -13.6,9.94 -25.02,12.68 l -39.75,12.34 c -10.51,2.74 -21.02,6.51 -31.53,11.31 -10.52,4.79 -20.11,10.97 -28.78,18.5 -8.7,7.54 -15.66,16.68 -20.91,27.42 -5.26,10.74 -7.88,23.42 -7.88,38.05 0,14.16 2.84,27.41 8.56,39.75 5.71,12.34 13.94,23.19 24.67,32.56 10.74,9.36 24.1,16.79 40.11,22.28 15.98,5.48 34.27,8.22 54.83,8.22 21.93,0 42.72,-2.97 62.37,-8.92 19.65,-5.93 38.15,-15.07 55.53,-27.41 l -43.19,-60.31" /><path
         id="path76"
         style="fill:#100f0d;fill-opacity:1;fill-rule:nonzero;stroke:none"
         d="m 4501.49,1499.32 h 58.94 l 13.03,98.71 78.14,-2.06 v -96.65 h 85 v -79.51 h -85 v -132.29 c 0,-14.63 3.43,-25.6 10.28,-32.9 6.85,-7.32 15.77,-10.97 26.73,-10.97 h 47.3 l 3.42,-80.19 c -12.79,-2.28 -24.91,-3.88 -36.32,-4.81 -11.43,-0.91 -22.4,-1.36 -32.9,-1.36 -19.19,0 -35.88,3.08 -50.04,9.25 -14.17,6.17 -25.94,14.5 -35.3,25.02 -9.37,10.5 -16.45,23.06 -21.25,37.7 -4.8,14.62 -7.2,30.16 -7.2,46.61 v 143.94 h -54.83 v 79.51" /><path
         id="path78"
         style="fill:#100f0d;fill-opacity:1;fill-rule:nonzero;stroke:none"
         d="m 4962.24,1078.47 c -11.43,-28.34 -27.42,-50.05 -47.98,-65.13 -20.57,-15.07 -46.61,-22.621 -78.15,-22.621 -8.68,0 -17.14,0.461 -25.36,1.383 -8.23,0.918 -16,2.046 -23.3,3.418 l 6.86,78.83 h 36.32 c 23.3,0 39.3,10.28 47.98,30.84 l 22.62,56.89 -132.98,337.24 h 98.71 l 80.88,-215.22 81.57,215.22 h 99.39 l -166.56,-420.85" /><path
         id="path80"
         style="fill:#100f0d;fill-opacity:1;fill-rule:nonzero;stroke:none"
         d="m 5262.38,1161.4 h -95.97 v 339.29 h 51.41 l 26.06,-45.23 c 10.5,15.99 23.87,28.33 40.09,37 16.22,8.68 34.84,13.03 55.87,13.03 16.45,0 32.44,-2.86 47.97,-8.57 15.53,-5.72 29.93,-13.83 43.18,-24.33 l -43.86,-74.03 c -7.78,5.94 -15.88,10.51 -24.33,13.71 -8.46,3.19 -17.94,4.8 -28.45,4.8 -17.82,0 -33.48,-5.72 -46.95,-17.14 -13.49,-11.43 -21.83,-26.28 -25.02,-44.55 V 1161.4" /><path
         id="path82"
         style="fill:#100f0d;fill-opacity:1;fill-rule:nonzero;stroke:none"
         d="m 5606.81,1432.15 c -21.48,0 -38.61,-6.75 -51.41,-20.22 -12.79,-13.49 -20.33,-30.05 -22.61,-49.7 h 146 c -0.47,9.6 -2.52,18.62 -6.16,27.08 -3.68,8.45 -8.58,15.87 -14.75,22.28 -6.16,6.39 -13.6,11.41 -22.28,15.08 -8.69,3.65 -18.28,5.48 -28.79,5.48 z m 12.34,-200.84 c 15.53,0 30.26,2.97 44.21,8.91 13.93,5.94 26.15,15.09 36.67,27.42 l 65.8,-47.98 c -18.74,-21.93 -40.67,-38.27 -65.8,-49.01 -25.13,-10.73 -52.78,-16.1 -82.93,-16.1 -27.88,0 -53.02,4.45 -75.4,13.36 -22.4,8.91 -41.48,21.25 -57.24,37.02 -15.77,15.76 -27.88,34.37 -36.33,55.86 -8.45,21.47 -12.68,44.55 -12.68,69.23 0,24.21 3.99,47.06 12,68.54 7.99,21.48 19.3,40.1 33.93,55.86 14.61,15.77 32.55,28.21 53.8,37.36 21.25,9.14 44.9,13.71 70.95,13.71 25.12,0 48.09,-4.57 68.89,-13.71 20.78,-9.15 38.6,-21.48 53.46,-37.01 14.85,-15.54 26.38,-33.58 34.61,-54.15 8.23,-20.56 12.35,-42.49 12.35,-65.8 0,-7.32 -0.13,-13.49 -0.35,-18.51 -0.24,-5.04 -0.58,-9.15 -1.03,-12.34 H 5532.1 c 1.82,-21.93 10.85,-39.53 27.07,-52.78 16.22,-13.26 36.22,-19.88 59.98,-19.88" /><path
         id="path84"
         style="fill:#100f0d;fill-opacity:1;fill-rule:nonzero;stroke:none"
         d="m 5932.81,1161.4 h -95.97 v 517.51 h 95.97 V 1161.4" /><path
         id="path86"
         style="fill:#100f0d;fill-opacity:1;fill-rule:nonzero;stroke:none"
         d="m 6198.02,1408.85 c -9.61,7.3 -20.23,13.01 -31.88,17.13 -11.66,4.11 -23.65,6.17 -35.98,6.17 -12.35,0 -21.71,-2.75 -28.11,-8.22 -6.41,-5.49 -9.6,-12.34 -9.6,-20.57 0,-5.94 2.17,-11.31 6.51,-16.11 4.34,-4.8 11.54,-8.34 21.6,-10.62 l 30.15,-7.54 c 37.93,-10.52 64.88,-24.68 80.89,-42.5 15.99,-17.82 23.99,-39.3 23.99,-64.43 0,-14.17 -2.97,-27.76 -8.91,-40.78 -5.95,-13.03 -14.64,-24.45 -26.05,-34.28 -11.42,-9.83 -25.59,-17.71 -42.5,-23.64 -16.91,-5.94 -36.1,-8.91 -57.57,-8.91 -26.05,0 -50.62,4 -73.69,11.99 -23.08,7.99 -43.3,19.98 -60.66,35.98 l 46.61,61.69 c 10.97,-10.96 23.87,-19.43 38.73,-25.36 14.84,-5.94 28.89,-8.91 42.15,-8.91 15.53,0 26.61,3.43 33.24,10.28 6.63,6.86 9.94,14.62 9.94,23.31 0,6.86 -2.63,13.13 -7.88,18.85 -5.26,5.71 -13.6,9.94 -25.02,12.68 l -39.75,12.34 c -10.52,2.74 -21.03,6.51 -31.54,11.31 -10.5,4.79 -20.11,10.97 -28.78,18.5 -8.69,7.54 -15.66,16.68 -20.9,27.42 -5.26,10.74 -7.89,23.42 -7.89,38.05 0,14.16 2.85,27.41 8.56,39.75 5.71,12.34 13.94,23.19 24.68,32.56 10.73,9.36 24.1,16.79 40.1,22.28 15.99,5.48 34.27,8.22 54.84,8.22 21.93,0 42.71,-2.97 62.37,-8.92 19.64,-5.93 38.15,-15.07 55.52,-27.41 l -43.17,-60.31" /><path
         id="path88"
         style="fill:#100f0d;fill-opacity:1;fill-rule:nonzero;stroke:none"
         d="m 6464.23,1432.15 c -21.48,0 -38.62,-6.75 -51.41,-20.22 -12.8,-13.49 -20.34,-30.05 -22.62,-49.7 h 146.01 c -0.47,9.6 -2.52,18.62 -6.17,27.08 -3.67,8.45 -8.57,15.87 -14.74,22.28 -6.17,6.39 -13.61,11.41 -22.28,15.08 -8.69,3.65 -18.28,5.48 -28.79,5.48 z m 12.33,-200.84 c 15.54,0 30.27,2.97 44.22,8.91 13.94,5.94 26.15,15.09 36.67,27.42 l 65.8,-47.98 c -18.74,-21.93 -40.68,-38.27 -65.8,-49.01 -25.14,-10.73 -52.78,-16.1 -82.94,-16.1 -27.88,0 -53.01,4.45 -75.39,13.36 -22.4,8.91 -41.48,21.25 -57.25,37.02 -15.76,15.76 -27.88,34.37 -36.31,55.86 -8.46,21.47 -12.69,44.55 -12.69,69.23 0,24.21 3.99,47.06 12,68.54 7.99,21.48 19.29,40.1 33.93,55.86 14.61,15.77 32.55,28.21 53.81,37.36 21.25,9.14 44.89,13.71 70.93,13.71 25.13,0 48.09,-4.57 68.9,-13.71 20.78,-9.15 38.59,-21.48 53.46,-37.01 14.85,-15.54 26.38,-33.58 34.62,-54.15 8.22,-20.56 12.33,-42.49 12.33,-65.8 0,-7.32 -0.12,-13.49 -0.34,-18.51 -0.24,-5.04 -0.58,-9.15 -1.03,-12.34 h -241.97 c 1.84,-21.93 10.86,-39.53 27.08,-52.78 16.22,-13.26 36.21,-19.88 59.97,-19.88" /><path
         id="path90"
         style="fill:#100f0d;fill-opacity:1;fill-rule:nonzero;stroke:none"
         d="m 6789.46,1161.4 h -95.97 v 339.29 h 51.42 l 27.42,-43.87 c 10.97,14.16 25.47,25.81 43.52,34.96 18.06,9.14 37.81,13.71 59.3,13.71 20.56,0 39.41,-3.43 56.55,-10.28 17.14,-6.85 32.1,-16.79 44.89,-29.82 12.78,-13.02 22.73,-29.02 29.82,-47.98 7.08,-18.97 10.62,-40.55 10.62,-64.77 V 1161.4 h -93.9 v 185.07 c 0,20.56 -5.27,37.36 -15.77,50.37 -10.52,13.03 -26.5,19.54 -47.98,19.54 -15.53,0 -29.6,-4.34 -42.15,-13.02 -12.58,-8.68 -21.83,-19.66 -27.77,-32.9 V 1161.4" /><path
         id="path92"
         style="fill:#162439;fill-opacity:1;fill-rule:nonzero;stroke:none"
         d="M 2129.83,567.148 H 1064.99 V 1701 H 2129.83 V 567.148" /><path
         id="path94"
         style="fill:#f8cc1d;fill-opacity:1;fill-rule:nonzero;stroke:none"
         d="m 1531.39,1382.57 c 8.85,45.46 20.26,98.5 22.27,105.07 0,0 -36.7,5.94 -43.82,-23.55 -3.93,-16.34 5.02,-30.3 5.02,-30.3 0,0 -32.72,0.45 -33.04,-29.86 -0.83,-27.93 21.9,-30.67 31.22,-30.67 10.99,0 18.35,9.31 18.35,9.31 z m -131.14,-16.07 c 0,0 19.86,-17.07 38.02,-17.07 18.26,0 32.13,17.07 32.13,17.07 0,0 8.5,-17.07 32.87,-17.07 9.85,0 16.88,3.11 22,7.3 -1.37,-6.57 -2.65,-11.86 -3.38,-16.6 -6.3,-38.25 -5.21,-71.3 -5.21,-71.3 h -232.41 c 0,0 0.82,33.05 -5.29,71.3 -1.01,4.74 -2.1,10.03 -3.38,16.6 5.38,-4.19 11.96,-7.3 22,-7.3 24.19,0 32.96,17.07 32.96,17.07 0,0 13.59,-17.07 32.03,-17.07 18.17,0 37.66,17.07 37.66,17.07 z m -112.42,6.76 c 9.04,0 31.86,2.74 31.36,30.67 -0.5,30.31 -33.46,29.86 -33.46,29.86 0,0 9.13,13.96 5.34,30.3 -7.3,29.49 -43.96,23.55 -43.96,23.55 2.01,-6.57 13.61,-59.61 22.38,-105.07 0,0 7.02,-9.31 18.34,-9.31 z m 112.06,18.89 c 9.63,-13.6 20.31,-17.97 29.89,-17.97 16.53,0 29.67,13.5 29.67,30.39 0,16.8 -13.14,30.49 -29.67,30.49 -2.19,0 -4.84,-0.55 -7.16,-0.82 4.51,5.66 8.99,12.69 8.99,20.72 0,17.89 -14.06,32.41 -31.54,32.41 -17.4,0 -31.45,-14.52 -31.45,-32.41 0,-7.85 4.1,-15.06 8.58,-20.72 -2.24,0.73 -4.48,0.82 -6.89,0.82 -16.48,0 -29.72,-13.69 -29.72,-30.49 0,-16.89 13.24,-30.39 29.72,-30.39 10.91,0 24.42,9.58 29.58,17.97" /><path
         id="path96"
         style="fill:#f8cc1d;fill-opacity:1;fill-rule:nonzero;stroke:none"
         d="m 1882.2,1382.57 c 8.94,45.46 20.26,98.5 22.27,105.07 0,0 -36.61,5.94 -43.68,-23.55 -4.06,-16.34 4.89,-30.3 4.89,-30.3 0,0 -32.64,0.45 -33.28,-29.86 -0.68,-27.93 22.13,-30.67 31.36,-30.67 11.4,0 18.44,9.31 18.44,9.31 z m -131.04,-16.07 c 0,0 19.85,-17.07 38.02,-17.07 18.12,0 31.95,17.07 31.95,17.07 0,0 8.67,-17.07 32.77,-17.07 10.13,0 16.89,3.11 22.14,7.3 -1.06,-6.57 -2.51,-11.86 -3.16,-16.6 -6.25,-38.25 -5.29,-71.3 -5.29,-71.3 h -232.6 c 0,0 1.05,33.05 -5.2,71.3 -0.82,4.74 -2.28,10.03 -3.65,16.6 5.57,-4.19 12.32,-7.3 22.18,-7.3 24.37,0 32.96,17.07 32.96,17.07 0,0 13.78,-17.07 32.03,-17.07 18.17,0 37.85,17.07 37.85,17.07 z m -112.43,6.76 c 9.23,0 31.86,2.74 31.32,30.67 -0.41,30.31 -33.37,29.86 -33.37,29.86 0,0 9.18,13.96 5.07,30.3 -7.22,29.49 -43.91,23.55 -43.91,23.55 2.01,-6.57 13.51,-59.61 22.46,-105.07 0,0 7.21,-9.31 18.43,-9.31 z m 111.83,18.89 c 9.59,-13.6 20.5,-17.97 30.13,-17.97 16.25,0 29.58,13.5 29.58,30.39 0,16.8 -13.33,30.49 -29.58,30.49 -2.29,0 -5.21,-0.55 -7.03,-0.82 4.38,5.66 8.67,12.69 8.67,20.72 0,17.89 -14.24,32.41 -31.4,32.41 -17.53,0 -31.59,-14.52 -31.59,-32.41 0,-7.85 4.2,-15.06 8.49,-20.72 -2.05,0.73 -4.29,0.82 -6.85,0.82 -16.24,0 -29.62,-13.69 -29.62,-30.49 0,-16.89 13.38,-30.39 29.62,-30.39 11.05,0 24.2,9.58 29.58,17.97" /><path
         id="path98"
         style="fill:#f8cc1d;fill-opacity:1;fill-rule:nonzero;stroke:none"
         d="m 1544.54,935.961 c -36.21,-32.68 -65.57,-72.133 -87.41,-115.699 -21.31,-42.512 -38.32,-90.473 -42,-138.172 31.49,99.23 105.75,195.199 192.91,253.871 -16.96,0 -46.54,0 -63.5,0" /><path
         id="path100"
         style="fill:#f8cc1d;fill-opacity:1;fill-rule:nonzero;stroke:none"
         d="m 2014.92,1009.41 c -6.92,4.22 -14.41,7.54 -21.97,10.58 -7.59,2.98 -15.32,5.61 -23.16,7.9 -15.67,4.63 -31.7,8.07 -47.88,10.64 -32.38,5.08 -65.4,6.49 -98.29,4.67 -8.23,-0.47 -16.45,-1.13 -24.65,-1.98 -8.2,-0.89 -16.38,-1.97 -24.54,-3.24 -12.81,-1.95 -25.5,-4.63 -38.12,-7.6 -1.13,-12.68 -1.83,-31.708 -2.01,-40.028 93.41,28.248 212.35,40.468 280.62,19.058" /><path
         id="path102"
         style="fill:#f8cc1d;fill-opacity:1;fill-rule:nonzero;stroke:none"
         d="m 1721.48,1092.35 c 9.87,50.69 22.6,109.83 24.83,117.16 0,0 -40.91,6.61 -48.85,-26.26 -4.38,-18.22 5.6,-33.79 5.6,-33.79 0,0 -36.49,0.5 -36.85,-33.29 -0.92,-31.15 24.43,-34.2 34.81,-34.2 12.26,0 20.46,10.38 20.46,10.38 z m -146.21,-17.91 c 0,0 22.14,-19.03 42.39,-19.03 20.36,0 35.83,19.03 35.83,19.03 0,0 9.46,-19.03 36.64,-19.03 10.99,0 18.83,3.46 24.53,8.13 -1.53,-7.32 -2.95,-13.23 -3.77,-18.51 -7.02,-42.66 -5.8,-79.491 -5.8,-79.491 h -259.13 c 0,0 0.9,36.831 -5.91,79.491 -1.12,5.28 -2.34,11.19 -3.77,18.51 6,-4.67 13.34,-8.13 24.53,-8.13 26.98,0 36.75,19.03 36.75,19.03 0,0 15.16,-19.03 35.72,-19.03 20.26,0 41.99,19.03 41.99,19.03 z m 0,0 c 0,0 22.14,-19.03 42.39,-19.03 20.36,0 35.83,19.03 35.83,19.03 0,0 9.46,-19.03 36.64,-19.03 10.99,0 18.83,3.46 24.53,8.13 -1.53,-7.32 -2.95,-13.23 -3.77,-18.51 -7.02,-42.66 -5.8,-79.491 -5.8,-79.491 h -259.13 c 0,0 0.9,36.831 -5.91,79.491 -1.12,5.28 -2.34,11.19 -3.77,18.51 6,-4.67 13.34,-8.13 24.53,-8.13 26.98,0 36.75,19.03 36.75,19.03 0,0 15.16,-19.03 35.72,-19.03 20.26,0 41.99,19.03 41.99,19.03 z m -125.35,7.53 c 10.08,0 35.52,3.05 34.96,34.2 -0.56,33.79 -37.3,33.29 -37.3,33.29 0,0 10.18,15.57 5.95,33.79 -8.14,32.87 -49.01,26.26 -49.01,26.26 2.25,-7.33 15.18,-66.47 24.95,-117.16 0,0 7.83,-10.38 20.45,-10.38 z m 124.94,21.07 c 10.74,-15.17 22.65,-20.05 33.33,-20.05 18.43,0 33.08,15.06 33.08,33.89 0,18.73 -14.65,34 -33.08,34 -2.43,0 -5.39,-0.61 -7.99,-0.92 5.04,6.31 10.03,14.15 10.03,23.11 0,19.95 -15.68,36.13 -35.16,36.13 -19.4,0 -35.07,-16.18 -35.07,-36.13 0,-8.76 4.58,-16.8 9.56,-23.11 -2.49,0.82 -4.98,0.92 -7.68,0.92 -18.37,0 -33.13,-15.27 -33.13,-34 0,-18.83 14.76,-33.89 33.13,-33.89 12.17,0 27.23,10.69 32.98,20.05" /></g></g></svg>